<?xml version="1.0" encoding="UTF-8" standalone="no"?>
<!-- Created with Inkscape (http://www.inkscape.org/) -->
<svg
   xmlns:dc="http://purl.org/dc/elements/1.1/"
   xmlns:cc="http://creativecommons.org/ns#"
   xmlns:rdf="http://www.w3.org/1999/02/22-rdf-syntax-ns#"
   xmlns:svg="http://www.w3.org/2000/svg"
   xmlns="http://www.w3.org/2000/svg"
   xmlns:xlink="http://www.w3.org/1999/xlink"
   xmlns:sodipodi="http://sodipodi.sourceforge.net/DTD/sodipodi-0.dtd"
   xmlns:inkscape="http://www.inkscape.org/namespaces/inkscape"
   width="158.4828"
   height="162.33292"
   id="svg2"
   sodipodi:version="0.32"
   inkscape:version="0.45+devel"
   sodipodi:docbase="C:\Documents and Settings\Administrador\Mis documentos\Mis im  genes"
   sodipodi:docname="lughdailh_Taronjeru.svg"
   inkscape:output_extension="org.inkscape.output.svg.inkscape"
   version="1.0">
  <defs
     id="defs4">
    <linearGradient
       inkscape:collect="always"
       id="linearGradient3258">
      <stop
         style="stop-color:#fee1ad;stop-opacity:1;"
         offset="0"
         id="stop3260" />
      <stop
         style="stop-color:#fee1ad;stop-opacity:0;"
         offset="1"
         id="stop3262" />
    </linearGradient>
    <linearGradient
       id="linearGradient3248">
      <stop
         id="stop3250"
         offset="0"
         style="stop-color:#ffbd00;stop-opacity:1;" />
      <stop
         id="stop3252"
         offset="1"
         style="stop-color:#c78f23;stop-opacity:1;" />
    </linearGradient>
    <linearGradient
       inkscape:collect="always"
       xlink:href="#linearGradient3258"
       id="linearGradient4316"
       gradientUnits="userSpaceOnUse"
       gradientTransform="matrix(0.9554068,0,0,1.0031353,6.5364061,-37.741776)"
       x1="245.29787"
       y1="390.11563"
       x2="251.23152"
       y2="502.89758" />
    <radialGradient
       inkscape:collect="always"
       xlink:href="#linearGradient3248"
       id="radialGradient4319"
       gradientUnits="userSpaceOnUse"
       gradientTransform="matrix(1.186281,0.6419221,-0.5364283,1.0795129,214.99539,-201.02709)"
       cx="185.37599"
       cy="456.30511"
       fx="185.37599"
       fy="456.30511"
       r="79.836273" />
  </defs>
  <sodipodi:namedview
     id="base"
     pagecolor="#ffffff"
     bordercolor="#666666"
     borderopacity="1.0"
     gridtolerance="10000"
     guidetolerance="10"
     objecttolerance="10"
     inkscape:pageopacity="0.0"
     inkscape:pageshadow="2"
     inkscape:zoom="3.283376"
     inkscape:cx="79.241402"
     inkscape:cy="81.166458"
     inkscape:document-units="px"
     inkscape:current-layer="layer1"
     inkscape:window-width="1280"
     inkscape:window-height="746"
     inkscape:window-x="0"
     inkscape:window-y="0"
     showgrid="false" />
  <metadata
     id="metadata7">
    <rdf:RDF>
      <cc:Work
         rdf:about="">
        <dc:format>image/svg+xml</dc:format>
        <dc:type
           rdf:resource="http://purl.org/dc/dcmitype/StillImage" />
      </cc:Work>
    </rdf:RDF>
  </metadata>
  <g
     inkscape:label="Layer 1"
     inkscape:groupmode="layer"
     id="layer1"
     transform="translate(-167.32329,-342.44875)">
    <g
       id="g4324">
      <path
         sodipodi:nodetypes="csssc"
         id="path2160"
         d="M 324.35509,440.34442 C 324.35509,480.76088 289.50499,503.33066 246.56469,503.33066 C 203.62439,503.33066 168.77429,480.76088 168.77429,440.34442 C 168.77429,399.92798 203.62439,367.12621 246.56469,367.12621 C 289.50499,367.12621 324.35509,399.92798 324.35509,440.34442 z"
         style="fill:url(#radialGradient4319);fill-opacity:1;fill-rule:evenodd;stroke:#000000;stroke-width:2.90199995;stroke-linecap:butt;stroke-linejoin:miter;stroke-miterlimit:4;stroke-dasharray:none;stroke-opacity:1" />
      <path
         id="path3254"
         d="M 271.03125,373.53125 C 261.14681,373.96494 252.32499,376.54345 245.9375,380.5 C 239.78484,376.68894 231.37987,374.13471 221.9375,373.5625 C 194.00121,383.08377 174,408.34032 174,437.96875 C 174,475.75383 206.5149,496.84375 246.5625,496.84375 C 286.6101,496.84375 319.12499,475.75382 319.125,437.96875 C 319.125,430.65671 317.90975,423.60821 315.65625,417 C 308.76146,396.78142 292.1481,380.67599 271.03125,373.53125 z"
         style="fill:url(#linearGradient4316);fill-opacity:1;fill-rule:evenodd;stroke:#000000;stroke-width:0;stroke-linecap:butt;stroke-linejoin:miter;stroke-miterlimit:4;stroke-dasharray:none;stroke-opacity:1" />
    </g>
    <g
       id="g4328"
       transform="translate(1.1699669,21.043232)">
      <path
         sodipodi:nodetypes="ccsssscsssc"
         id="path3274"
         d="M 267.74544,425.69586 C 257.39214,425.86172 248.9549,430.0647 246.44201,439.49871 C 242.78618,431.4967 233.17025,429.04531 222.48394,430.71818 C 210.21462,432.63886 201.19812,439.2419 203.23785,450.36331 C 204.459,457.02151 209.1092,462.37169 215.2777,465.18143 C 219.41264,467.06489 224.22982,467.80682 229.15371,467.03602 C 237.95793,465.65778 244.67603,459.81356 247.0393,452.51572 C 250.00988,460.72724 257.75592,467.24364 267.77863,468.81262 C 282.15126,471.06257 295.7516,462.29795 298.14099,449.27 C 300.53039,436.24207 289.94926,428.52661 275.57661,426.27668 C 272.88174,425.85481 270.2685,425.65545 267.74544,425.69586 z"
         style="fill:#000000;fill-opacity:1;stroke:#000000;stroke-width:0;stroke-miterlimit:4;stroke-opacity:1" />
      <path
         id="path3280"
         d="M 257.46875,435.15625 C 254.80942,435.15625 252.18209,435.21617 249.59375,435.3125 C 248.28726,436.81685 247.30382,438.59745 246.6875,440.6875 C 245.63538,438.60731 244.0628,436.98292 242.09375,435.75 C 228.80692,436.73689 216.80333,438.96239 207.09375,442.09375 C 205.84282,444.31651 205.39079,446.93709 206,449.9375 C 207.9209,459.39814 218.85161,465.75885 230.40625,464.125 C 238.69761,462.95258 245.02439,457.95804 247.25,451.75 C 250.04753,458.73528 257.34237,464.29032 266.78125,465.625 C 280.31667,467.53897 293.12479,460.08246 295.375,449 C 296.22422,444.81751 295.35316,441.26318 293.1875,438.375 C 282.56115,436.32178 270.39116,435.15625 257.46875,435.15625 z"
         style="fill:#f2f2f2;fill-opacity:1;stroke:#000000;stroke-width:0;stroke-miterlimit:4;stroke-opacity:1" />
      <g
         transform="translate(120.2811,18.138451)"
         id="g3291">
        <path
           style="fill:#241f1c;fill-opacity:1;stroke:#000000;stroke-width:0;stroke-miterlimit:4;stroke-opacity:1"
           d="M 125.82257,431.28714 C 125.82257,436.23595 121.80614,440.25238 116.85732,440.25238 C 111.90851,440.25238 107.89208,436.23595 107.89208,431.28714 C 107.89208,426.33833 111.90851,422.3219 116.85732,422.3219 C 121.80614,422.3219 125.82257,426.33833 125.82257,431.28714 z"
           id="path3282" />
        <path
           sodipodi:type="arc"
           style="fill:#f2f2f2;fill-opacity:1;stroke:#000000;stroke-width:0;stroke-miterlimit:4;stroke-dasharray:none;stroke-opacity:1"
           id="path3285"
           sodipodi:cx="116.57455"
           sodipodi:cy="430.56451"
           sodipodi:rx="3.2715652"
           sodipodi:ry="3.138032"
           d="M 119.84611,430.56451 A 3.2715652,3.138032 0 1 1 113.30298,430.56451 A 3.2715652,3.138032 0 1 1 119.84611,430.56451 z"
           transform="translate(0.9347329,1.6691658)" />
        <path
           transform="matrix(0.6020408,0,0,0.6020408,45.357028,168.22883)"
           d="M 119.84611,430.56451 A 3.2715652,3.138032 0 1 1 113.30298,430.56451 A 3.2715652,3.138032 0 1 1 119.84611,430.56451 z"
           sodipodi:ry="3.138032"
           sodipodi:rx="3.2715652"
           sodipodi:cy="430.56451"
           sodipodi:cx="116.57455"
           id="path3287"
           style="fill:#f2f2f2;fill-opacity:1;stroke:#000000;stroke-width:0;stroke-miterlimit:4;stroke-dasharray:none;stroke-opacity:1"
           sodipodi:type="arc" />
        <path
           sodipodi:type="arc"
           style="fill:#f2f2f2;fill-opacity:1;stroke:#000000;stroke-width:0;stroke-miterlimit:4;stroke-dasharray:none;stroke-opacity:1"
           id="path3289"
           sodipodi:cx="116.57455"
           sodipodi:cy="430.56451"
           sodipodi:rx="3.2715652"
           sodipodi:ry="3.138032"
           d="M 119.84611,430.56451 A 3.2715652,3.138032 0 1 1 113.30298,430.56451 A 3.2715652,3.138032 0 1 1 119.84611,430.56451 z"
           transform="matrix(0.3163265,0,0,0.3041685,76.794575,299.01922)" />
      </g>
      <g
         id="g3297"
         transform="translate(140.2811,18.138451)">
        <path
           id="path3299"
           d="M 125.82257,431.28714 C 125.82257,436.23595 121.80614,440.25238 116.85732,440.25238 C 111.90851,440.25238 107.89208,436.23595 107.89208,431.28714 C 107.89208,426.33833 111.90851,422.3219 116.85732,422.3219 C 121.80614,422.3219 125.82257,426.33833 125.82257,431.28714 z"
           style="fill:#241f1c;fill-opacity:1;stroke:#000000;stroke-width:0;stroke-miterlimit:4;stroke-opacity:1" />
        <path
           transform="translate(0.9347329,1.6691658)"
           d="M 119.84611,430.56451 A 3.2715652,3.138032 0 1 1 113.30298,430.56451 A 3.2715652,3.138032 0 1 1 119.84611,430.56451 z"
           sodipodi:ry="3.138032"
           sodipodi:rx="3.2715652"
           sodipodi:cy="430.56451"
           sodipodi:cx="116.57455"
           id="path3301"
           style="fill:#f2f2f2;fill-opacity:1;stroke:#000000;stroke-width:0;stroke-miterlimit:4;stroke-dasharray:none;stroke-opacity:1"
           sodipodi:type="arc" />
        <path
           sodipodi:type="arc"
           style="fill:#f2f2f2;fill-opacity:1;stroke:#000000;stroke-width:0;stroke-miterlimit:4;stroke-dasharray:none;stroke-opacity:1"
           id="path3303"
           sodipodi:cx="116.57455"
           sodipodi:cy="430.56451"
           sodipodi:rx="3.2715652"
           sodipodi:ry="3.138032"
           d="M 119.84611,430.56451 A 3.2715652,3.138032 0 1 1 113.30298,430.56451 A 3.2715652,3.138032 0 1 1 119.84611,430.56451 z"
           transform="matrix(0.6020408,0,0,0.6020408,45.357028,168.22883)" />
        <path
           transform="matrix(0.3163265,0,0,0.3041685,76.794575,299.01922)"
           d="M 119.84611,430.56451 A 3.2715652,3.138032 0 1 1 113.30298,430.56451 A 3.2715652,3.138032 0 1 1 119.84611,430.56451 z"
           sodipodi:ry="3.138032"
           sodipodi:rx="3.2715652"
           sodipodi:cy="430.56451"
           sodipodi:cx="116.57455"
           id="path3305"
           style="fill:#f2f2f2;fill-opacity:1;stroke:#000000;stroke-width:0;stroke-miterlimit:4;stroke-dasharray:none;stroke-opacity:1"
           sodipodi:type="arc" />
      </g>
    </g>
    <path
       style="fill:#73d216;fill-opacity:1;stroke:#008000;stroke-width:2;stroke-miterlimit:4;stroke-dasharray:none;stroke-opacity:1"
       d="M 246.47669,343.44875 C 241.12975,343.44875 236.53596,348.48673 234.38033,355.70072 C 230.69842,353.38265 226.95685,351.99549 223.80722,351.99549 C 216.40095,351.99549 215.00409,359.65153 220.67113,369.08897 C 221.03655,369.69752 221.43147,370.27532 221.83596,370.86748 C 231.33625,371.26587 239.80332,373.74533 245.93908,377.4875 C 252.16719,373.68898 260.8156,371.20829 270.49021,370.86748 C 270.89468,370.27532 271.28961,369.69752 271.65504,369.08897 C 277.32206,359.65153 275.88042,351.99549 268.47415,351.99549 C 265.48063,351.99549 261.98583,353.24069 258.48345,355.3549 C 256.28492,348.32815 251.73756,343.44875 246.47669,343.44875 z"
       id="path3323" />
    <path
       style="fill:#008000;fill-opacity:1;stroke:#000000;stroke-width:0;stroke-miterlimit:4;stroke-dasharray:none;stroke-opacity:1"
       d="M 246.14905,354.77888 C 236.86363,354.77888 229.31664,360.02785 229.31664,366.51575 C 229.31664,366.78046 229.33577,367.05111 229.36047,367.31148 C 229.95243,361.19808 237.25036,356.37032 246.14905,356.37032 C 255.04774,356.37033 262.30182,361.19808 262.89378,367.31148 C 262.91848,367.05111 262.93762,366.78046 262.93762,366.51575 C 262.93762,360.02785 255.43446,354.77889 246.14905,354.77888 z"
       id="path4348" />
    <path
       style="opacity:0.2072727;fill:#8f5902;fill-opacity:1;stroke:#000000;stroke-width:0;stroke-miterlimit:4;stroke-dasharray:none;stroke-opacity:1"
       d="M 213.58385,381.68369 C 211.64327,381.71984 209.48108,382.14521 207.3026,383.02744 C 201.49334,385.38006 197.84265,389.98104 199.1776,393.27744 C 200.51256,396.57383 206.33708,397.34881 212.14635,394.99619 C 215.57131,393.60916 218.21312,391.43224 219.5526,389.21494 C 220.50203,389.89446 222.2733,389.93552 224.0526,389.21494 C 226.33074,388.29235 227.74283,386.50225 227.20885,385.18369 C 226.67487,383.86514 224.39325,383.54235 222.1151,384.46494 C 221.47613,384.72371 220.90687,385.03347 220.4276,385.40244 C 220.382,385.17676 220.32743,384.96183 220.2401,384.74619 C 219.40575,382.68595 216.81815,381.62344 213.58385,381.68369 z"
       id="path4353" />
    <path
       sodipodi:type="arc"
       style="opacity:0.2072727;fill:#8f5902;fill-opacity:1;stroke:#000000;stroke-width:0;stroke-miterlimit:4;stroke-dasharray:none;stroke-opacity:1"
       id="path5327"
       sodipodi:cx="70.992447"
       sodipodi:cy="380.43857"
       sodipodi:rx="24.355072"
       sodipodi:ry="15.545791"
       d="M 95.347519,380.43857 A 24.355072,15.545791 0 1 1 46.637375,380.43857 A 24.355072,15.545791 0 1 1 95.347519,380.43857 z"
       transform="matrix(0.4338055,-0.3113916,0.3128502,0.5056835,43.987023,237.80048)" />
    <path
       sodipodi:type="arc"
       style="opacity:0.2072727;fill:#8f5902;fill-opacity:1;stroke:#000000;stroke-width:0;stroke-miterlimit:4;stroke-dasharray:none;stroke-opacity:1"
       id="path5329"
       sodipodi:cx="61.492241"
       sodipodi:cy="371.62927"
       sodipodi:rx="5.1819301"
       sodipodi:ry="2.9364271"
       d="M 66.674171,371.62927 A 5.1819301,2.9364271 0 1 1 56.310311,371.62927 A 5.1819301,2.9364271 0 1 1 66.674171,371.62927 z"
       transform="matrix(0.9256898,-0.3782834,0.3782834,0.9256898,15.646136,79.896137)" />
  </g>
</svg>
